<svg width="271" height="50" viewBox="0 0 271 50" fill="none" xmlns="http://www.w3.org/2000/svg">
<path d="M63.476 29.476C63.572 29.476 63.668 29.496 63.764 29.536C63.86 29.568 63.952 29.628 64.04 29.716L65.648 31.408C64.944 32.328 64.06 33.024 62.996 33.496C61.94 33.96 60.688 34.192 59.24 34.192C57.912 34.192 56.72 33.968 55.664 33.52C54.616 33.064 53.724 32.44 52.988 31.648C52.26 30.848 51.7 29.904 51.308 28.816C50.916 27.72 50.72 26.532 50.72 25.252C50.72 23.948 50.932 22.752 51.356 21.664C51.78 20.568 52.376 19.624 53.144 18.832C53.912 18.04 54.832 17.424 55.904 16.984C56.976 16.544 58.156 16.324 59.444 16.324C60.1 16.324 60.716 16.384 61.292 16.504C61.876 16.616 62.42 16.776 62.924 16.984C63.428 17.184 63.892 17.428 64.316 17.716C64.74 18.004 65.116 18.316 65.444 18.652L64.076 20.488C63.988 20.6 63.884 20.704 63.764 20.8C63.644 20.888 63.476 20.932 63.26 20.932C63.116 20.932 62.98 20.9 62.852 20.836C62.724 20.772 62.588 20.696 62.444 20.608C62.3 20.512 62.14 20.412 61.964 20.308C61.796 20.196 61.592 20.096 61.352 20.008C61.12 19.912 60.844 19.832 60.524 19.768C60.212 19.704 59.844 19.672 59.42 19.672C58.748 19.672 58.132 19.796 57.572 20.044C57.02 20.292 56.54 20.656 56.132 21.136C55.732 21.608 55.42 22.192 55.196 22.888C54.98 23.576 54.872 24.364 54.872 25.252C54.872 26.148 54.992 26.944 55.232 27.64C55.48 28.336 55.812 28.924 56.228 29.404C56.652 29.876 57.144 30.236 57.704 30.484C58.264 30.732 58.864 30.856 59.504 30.856C59.872 30.856 60.208 30.84 60.512 30.808C60.816 30.768 61.1 30.708 61.364 30.628C61.628 30.54 61.876 30.428 62.108 30.292C62.34 30.148 62.576 29.968 62.816 29.752C62.912 29.672 63.016 29.608 63.128 29.56C63.24 29.504 63.356 29.476 63.476 29.476ZM84.1801 25.252C84.1801 26.516 83.9601 27.692 83.5201 28.78C83.0881 29.868 82.4761 30.816 81.6841 31.624C80.8921 32.424 79.9361 33.052 78.8161 33.508C77.7041 33.964 76.4681 34.192 75.1081 34.192C73.7481 34.192 72.5081 33.964 71.3881 33.508C70.2681 33.052 69.3081 32.424 68.5081 31.624C67.7161 30.816 67.1001 29.868 66.6601 28.78C66.2281 27.692 66.0121 26.516 66.0121 25.252C66.0121 23.988 66.2281 22.812 66.6601 21.724C67.1001 20.636 67.7161 19.692 68.5081 18.892C69.3081 18.092 70.2681 17.464 71.3881 17.008C72.5081 16.552 73.7481 16.324 75.1081 16.324C76.4681 16.324 77.7041 16.556 78.8161 17.02C79.9361 17.476 80.8921 18.104 81.6841 18.904C82.4761 19.704 83.0881 20.648 83.5201 21.736C83.9601 22.824 84.1801 23.996 84.1801 25.252ZM80.0281 25.252C80.0281 24.388 79.9161 23.612 79.6921 22.924C79.4681 22.228 79.1441 21.64 78.7201 21.16C78.3041 20.68 77.7921 20.312 77.1841 20.056C76.5761 19.8 75.8841 19.672 75.1081 19.672C74.3241 19.672 73.6241 19.8 73.0081 20.056C72.4001 20.312 71.8841 20.68 71.4601 21.16C71.0441 21.64 70.7241 22.228 70.5001 22.924C70.2761 23.612 70.1641 24.388 70.1641 25.252C70.1641 26.124 70.2761 26.908 70.5001 27.604C70.7241 28.292 71.0441 28.876 71.4601 29.356C71.8841 29.836 72.4001 30.204 73.0081 30.46C73.6241 30.708 74.3241 30.832 75.1081 30.832C75.8841 30.832 76.5761 30.708 77.1841 30.46C77.7921 30.204 78.3041 29.836 78.7201 29.356C79.1441 28.876 79.4681 28.292 79.6921 27.604C79.9161 26.908 80.0281 26.124 80.0281 25.252ZM106.223 16.516V34H102.647V23.944C102.647 23.712 102.651 23.46 102.659 23.188C102.675 22.916 102.699 22.64 102.731 22.36L98.087 31.348C97.943 31.628 97.747 31.84 97.499 31.984C97.259 32.128 96.983 32.2 96.671 32.2H96.119C95.807 32.2 95.527 32.128 95.279 31.984C95.039 31.84 94.847 31.628 94.703 31.348L90.059 22.336C90.083 22.624 90.103 22.908 90.119 23.188C90.135 23.46 90.143 23.712 90.143 23.944V34H86.567V16.516H89.663C89.839 16.516 89.991 16.52 90.119 16.528C90.255 16.536 90.375 16.56 90.479 16.6C90.583 16.64 90.675 16.704 90.755 16.792C90.843 16.872 90.927 16.988 91.007 17.14L95.507 26.008C95.667 26.312 95.819 26.628 95.963 26.956C96.115 27.284 96.259 27.62 96.395 27.964C96.531 27.612 96.671 27.268 96.815 26.932C96.967 26.596 97.127 26.276 97.295 25.972L101.783 17.14C101.863 16.988 101.943 16.872 102.023 16.792C102.111 16.704 102.207 16.64 102.311 16.6C102.415 16.56 102.531 16.536 102.659 16.528C102.795 16.52 102.951 16.516 103.127 16.516H106.223ZM115.774 25.096C116.83 25.096 117.59 24.844 118.054 24.34C118.518 23.836 118.75 23.132 118.75 22.228C118.75 21.828 118.69 21.464 118.57 21.136C118.45 20.808 118.266 20.528 118.018 20.296C117.778 20.056 117.47 19.872 117.094 19.744C116.726 19.616 116.286 19.552 115.774 19.552H113.662V25.096H115.774ZM115.774 16.516C117.006 16.516 118.062 16.664 118.942 16.96C119.83 17.248 120.558 17.648 121.126 18.16C121.702 18.672 122.126 19.276 122.398 19.972C122.67 20.668 122.806 21.42 122.806 22.228C122.806 23.1 122.666 23.9 122.386 24.628C122.106 25.356 121.678 25.98 121.102 26.5C120.526 27.02 119.794 27.428 118.906 27.724C118.026 28.012 116.982 28.156 115.774 28.156H113.662V34H109.606V16.516H115.774ZM132.885 27.316L131.265 22.528C131.145 22.224 131.017 21.868 130.881 21.46C130.745 21.044 130.609 20.596 130.473 20.116C130.353 20.604 130.225 21.056 130.089 21.472C129.953 21.888 129.825 22.248 129.705 22.552L128.097 27.316H132.885ZM139.329 34H136.185C135.833 34 135.549 33.92 135.333 33.76C135.117 33.592 134.953 33.38 134.841 33.124L133.809 30.076H127.161L126.129 33.124C126.041 33.348 125.881 33.552 125.649 33.736C125.425 33.912 125.145 34 124.809 34H121.641L128.409 16.516H132.561L139.329 34ZM155.972 16.516V34H153.86C153.548 34 153.284 33.952 153.068 33.856C152.86 33.752 152.652 33.576 152.444 33.328L144.2 22.9C144.232 23.212 144.252 23.516 144.26 23.812C144.276 24.1 144.284 24.372 144.284 24.628V34H140.708V16.516H142.844C143.02 16.516 143.168 16.524 143.288 16.54C143.408 16.556 143.516 16.588 143.612 16.636C143.708 16.676 143.8 16.736 143.888 16.816C143.976 16.896 144.076 17.004 144.188 17.14L152.504 27.64C152.464 27.304 152.436 26.98 152.42 26.668C152.404 26.348 152.396 26.048 152.396 25.768V16.516H155.972ZM167.74 27.352V34H163.684V27.352L157.348 16.516H160.924C161.276 16.516 161.552 16.6 161.752 16.768C161.96 16.928 162.132 17.136 162.268 17.392L164.74 22.48C164.948 22.88 165.136 23.256 165.304 23.608C165.472 23.952 165.62 24.292 165.748 24.628C165.868 24.284 166.004 23.94 166.156 23.596C166.316 23.244 166.5 22.872 166.708 22.48L169.156 17.392C169.212 17.288 169.28 17.184 169.36 17.08C169.44 16.976 169.532 16.884 169.636 16.804C169.748 16.716 169.872 16.648 170.008 16.6C170.152 16.544 170.308 16.516 170.476 16.516H174.076L167.74 27.352ZM177.518 15.364C177.95 16.052 178.242 16.76 178.394 17.488C178.546 18.216 178.554 18.936 178.418 19.648C178.29 20.352 178.022 21.028 177.614 21.676C177.206 22.324 176.662 22.912 175.982 23.44L174.806 22.744C174.702 22.688 174.63 22.62 174.59 22.54C174.55 22.452 174.53 22.368 174.53 22.288C174.538 22.2 174.558 22.12 174.59 22.048C174.63 21.968 174.678 21.9 174.734 21.844C174.822 21.748 174.918 21.616 175.022 21.448C175.126 21.28 175.222 21.084 175.31 20.86C175.398 20.636 175.466 20.392 175.514 20.128C175.57 19.856 175.59 19.572 175.574 19.276C175.558 18.972 175.502 18.66 175.406 18.34C175.31 18.012 175.154 17.68 174.938 17.344C174.762 17.064 174.714 16.824 174.794 16.624C174.882 16.424 175.046 16.28 175.286 16.192L177.518 15.364ZM190.54 20.068C190.42 20.26 190.292 20.404 190.156 20.5C190.028 20.596 189.86 20.644 189.652 20.644C189.468 20.644 189.268 20.588 189.052 20.476C188.844 20.356 188.604 20.224 188.332 20.08C188.068 19.936 187.764 19.808 187.42 19.696C187.076 19.576 186.684 19.516 186.243 19.516C185.484 19.516 184.916 19.68 184.54 20.008C184.172 20.328 183.988 20.764 183.988 21.316C183.988 21.668 184.1 21.96 184.324 22.192C184.548 22.424 184.84 22.624 185.2 22.792C185.568 22.96 185.984 23.116 186.448 23.26C186.92 23.396 187.4 23.552 187.888 23.728C188.376 23.896 188.852 24.096 189.316 24.328C189.788 24.56 190.204 24.856 190.564 25.216C190.932 25.576 191.228 26.016 191.452 26.536C191.676 27.048 191.788 27.668 191.788 28.396C191.788 29.204 191.648 29.96 191.368 30.664C191.088 31.368 190.68 31.984 190.144 32.512C189.616 33.032 188.96 33.444 188.176 33.748C187.4 34.044 186.516 34.192 185.523 34.192C184.98 34.192 184.424 34.136 183.856 34.024C183.296 33.912 182.752 33.756 182.224 33.556C181.696 33.348 181.2 33.104 180.736 32.824C180.272 32.544 179.868 32.232 179.524 31.888L180.724 29.992C180.82 29.856 180.944 29.744 181.096 29.656C181.256 29.56 181.428 29.512 181.612 29.512C181.852 29.512 182.092 29.588 182.332 29.74C182.58 29.892 182.856 30.06 183.16 30.244C183.472 30.428 183.828 30.596 184.228 30.748C184.628 30.9 185.1 30.976 185.644 30.976C186.38 30.976 186.952 30.816 187.36 30.496C187.768 30.168 187.972 29.652 187.972 28.948C187.972 28.54 187.86 28.208 187.636 27.952C187.412 27.696 187.116 27.484 186.748 27.316C186.388 27.148 185.976 27 185.512 26.872C185.048 26.744 184.572 26.604 184.084 26.452C183.596 26.292 183.12 26.1 182.656 25.876C182.192 25.644 181.776 25.344 181.408 24.976C181.048 24.6 180.756 24.136 180.532 23.584C180.308 23.024 180.196 22.336 180.196 21.52C180.196 20.864 180.328 20.224 180.592 19.6C180.856 18.976 181.244 18.42 181.756 17.932C182.268 17.444 182.896 17.056 183.64 16.768C184.384 16.472 185.236 16.324 186.196 16.324C186.732 16.324 187.252 16.368 187.756 16.456C188.268 16.536 188.752 16.66 189.208 16.828C189.664 16.988 190.088 17.184 190.48 17.416C190.88 17.64 191.236 17.896 191.548 18.184L190.54 20.068ZM214.987 16.516V34H212.875C212.563 34 212.299 33.952 212.083 33.856C211.875 33.752 211.667 33.576 211.459 33.328L203.215 22.9C203.247 23.212 203.267 23.516 203.275 23.812C203.291 24.1 203.299 24.372 203.299 24.628V34H199.723V16.516H201.859C202.035 16.516 202.183 16.524 202.303 16.54C202.423 16.556 202.531 16.588 202.627 16.636C202.723 16.676 202.815 16.736 202.903 16.816C202.991 16.896 203.091 17.004 203.203 17.14L211.519 27.64C211.479 27.304 211.451 26.98 211.435 26.668C211.419 26.348 211.411 26.048 211.411 25.768V16.516H214.987ZM227.62 27.316L226 22.528C225.88 22.224 225.752 21.868 225.616 21.46C225.48 21.044 225.344 20.596 225.208 20.116C225.088 20.604 224.96 21.056 224.824 21.472C224.688 21.888 224.56 22.248 224.44 22.552L222.832 27.316H227.62ZM234.064 34H230.92C230.568 34 230.284 33.92 230.068 33.76C229.852 33.592 229.688 33.38 229.576 33.124L228.544 30.076H221.896L220.864 33.124C220.776 33.348 220.616 33.552 220.384 33.736C220.16 33.912 219.88 34 219.544 34H216.375L223.144 16.516H227.296L234.064 34ZM255.098 16.516V34H251.522V23.944C251.522 23.712 251.526 23.46 251.534 23.188C251.55 22.916 251.574 22.64 251.606 22.36L246.962 31.348C246.818 31.628 246.622 31.84 246.374 31.984C246.134 32.128 245.858 32.2 245.546 32.2H244.994C244.682 32.2 244.402 32.128 244.154 31.984C243.914 31.84 243.722 31.628 243.578 31.348L238.934 22.336C238.958 22.624 238.978 22.908 238.994 23.188C239.01 23.46 239.018 23.712 239.018 23.944V34H235.442V16.516H238.538C238.714 16.516 238.866 16.52 238.994 16.528C239.13 16.536 239.25 16.56 239.354 16.6C239.458 16.64 239.55 16.704 239.63 16.792C239.718 16.872 239.802 16.988 239.882 17.14L244.382 26.008C244.542 26.312 244.694 26.628 244.838 26.956C244.99 27.284 245.134 27.62 245.27 27.964C245.406 27.612 245.546 27.268 245.69 26.932C245.842 26.596 246.002 26.276 246.17 25.972L250.658 17.14C250.738 16.988 250.818 16.872 250.898 16.792C250.986 16.704 251.082 16.64 251.186 16.6C251.29 16.56 251.406 16.536 251.534 16.528C251.67 16.52 251.826 16.516 252.002 16.516H255.098ZM262.561 19.636V23.716H268.057V26.716H262.561V30.88H269.737V34H258.481V16.516H269.737V19.636H262.561Z" fill="white"/>
<g opacity="0.6">
<path d="M40.625 3.125H9.375C5.92773 3.125 3.125 5.92773 3.125 9.375V40.625C3.125 44.0723 5.92773 46.875 9.375 46.875H40.625C44.0723 46.875 46.875 44.0723 46.875 40.625V9.375C46.875 5.92773 44.0723 3.125 40.625 3.125ZM43.75 40.625C43.75 42.3438 42.3438 43.75 40.625 43.75H9.375C7.65625 43.75 6.25 42.3438 6.25 40.625V9.375C6.25 7.65625 7.65625 6.25 9.375 6.25H40.625C42.3438 6.25 43.75 7.65625 43.75 9.375V40.625Z" fill="white"/>
<path d="M20.476 29.476C20.572 29.476 20.668 29.496 20.764 29.536C20.86 29.568 20.952 29.628 21.04 29.716L22.648 31.408C21.944 32.328 21.06 33.024 19.996 33.496C18.94 33.96 17.688 34.192 16.24 34.192C14.912 34.192 13.72 33.968 12.664 33.52C11.616 33.064 10.724 32.44 9.988 31.648C9.26 30.848 8.7 29.904 8.308 28.816C7.916 27.72 7.72 26.532 7.72 25.252C7.72 23.948 7.932 22.752 8.356 21.664C8.78 20.568 9.376 19.624 10.144 18.832C10.912 18.04 11.832 17.424 12.904 16.984C13.976 16.544 15.156 16.324 16.444 16.324C17.1 16.324 17.716 16.384 18.292 16.504C18.876 16.616 19.42 16.776 19.924 16.984C20.428 17.184 20.892 17.428 21.316 17.716C21.74 18.004 22.116 18.316 22.444 18.652L21.076 20.488C20.988 20.6 20.884 20.704 20.764 20.8C20.644 20.888 20.476 20.932 20.26 20.932C20.116 20.932 19.98 20.9 19.852 20.836C19.724 20.772 19.588 20.696 19.444 20.608C19.3 20.512 19.14 20.412 18.964 20.308C18.796 20.196 18.592 20.096 18.352 20.008C18.12 19.912 17.844 19.832 17.524 19.768C17.212 19.704 16.844 19.672 16.42 19.672C15.748 19.672 15.132 19.796 14.572 20.044C14.02 20.292 13.54 20.656 13.132 21.136C12.732 21.608 12.42 22.192 12.196 22.888C11.98 23.576 11.872 24.364 11.872 25.252C11.872 26.148 11.992 26.944 12.232 27.64C12.48 28.336 12.812 28.924 13.228 29.404C13.652 29.876 14.144 30.236 14.704 30.484C15.264 30.732 15.864 30.856 16.504 30.856C16.872 30.856 17.208 30.84 17.512 30.808C17.816 30.768 18.1 30.708 18.364 30.628C18.628 30.54 18.876 30.428 19.108 30.292C19.34 30.148 19.576 29.968 19.816 29.752C19.912 29.672 20.016 29.608 20.128 29.56C20.24 29.504 20.356 29.476 20.476 29.476ZM39.6826 16.516L39.6826 34L37.5706 34C37.2586 34 36.9946 33.952 36.7786 33.856C36.5706 33.752 36.3626 33.576 36.1546 33.328L27.9106 22.9C27.9426 23.212 27.9626 23.516 27.9706 23.812C27.9866 24.1 27.9946 24.372 27.9946 24.628L27.9946 34L24.4186 34L24.4186 16.516L26.5546 16.516C26.7306 16.516 26.8786 16.524 26.9986 16.54C27.1186 16.556 27.2266 16.588 27.3226 16.636C27.4186 16.676 27.5106 16.736 27.5986 16.816C27.6866 16.896 27.7866 17.004 27.8986 17.14L36.2146 27.64C36.1746 27.304 36.1466 26.98 36.1306 26.668C36.1146 26.348 36.1066 26.048 36.1066 25.768L36.1066 16.516L39.6826 16.516Z" fill="white"/>
</g>
</svg>
