<svg width="50" height="50" viewBox="0 0 50 50" fill="none" xmlns="http://www.w3.org/2000/svg">
<path d="M40.625 3.125H9.375C5.92773 3.125 3.125 5.92773 3.125 9.375V40.625C3.125 44.0723 5.92773 46.875 9.375 46.875H40.625C44.0723 46.875 46.875 44.0723 46.875 40.625V9.375C46.875 5.92773 44.0723 3.125 40.625 3.125ZM43.75 40.625C43.75 42.3438 42.3438 43.75 40.625 43.75H9.375C7.65625 43.75 6.25 42.3438 6.25 40.625V9.375C6.25 7.65625 7.65625 6.25 9.375 6.25H40.625C42.3438 6.25 43.75 7.65625 43.75 9.375V40.625Z" fill="white"/>
<path d="M20.476 29.476C20.572 29.476 20.668 29.496 20.764 29.536C20.86 29.568 20.952 29.628 21.04 29.716L22.648 31.408C21.944 32.328 21.06 33.024 19.996 33.496C18.94 33.96 17.688 34.192 16.24 34.192C14.912 34.192 13.72 33.968 12.664 33.52C11.616 33.064 10.724 32.44 9.988 31.648C9.26 30.848 8.7 29.904 8.308 28.816C7.916 27.72 7.72 26.532 7.72 25.252C7.72 23.948 7.932 22.752 8.356 21.664C8.78 20.568 9.376 19.624 10.144 18.832C10.912 18.04 11.832 17.424 12.904 16.984C13.976 16.544 15.156 16.324 16.444 16.324C17.1 16.324 17.716 16.384 18.292 16.504C18.876 16.616 19.42 16.776 19.924 16.984C20.428 17.184 20.892 17.428 21.316 17.716C21.74 18.004 22.116 18.316 22.444 18.652L21.076 20.488C20.988 20.6 20.884 20.704 20.764 20.8C20.644 20.888 20.476 20.932 20.26 20.932C20.116 20.932 19.98 20.9 19.852 20.836C19.724 20.772 19.588 20.696 19.444 20.608C19.3 20.512 19.14 20.412 18.964 20.308C18.796 20.196 18.592 20.096 18.352 20.008C18.12 19.912 17.844 19.832 17.524 19.768C17.212 19.704 16.844 19.672 16.42 19.672C15.748 19.672 15.132 19.796 14.572 20.044C14.02 20.292 13.54 20.656 13.132 21.136C12.732 21.608 12.42 22.192 12.196 22.888C11.98 23.576 11.872 24.364 11.872 25.252C11.872 26.148 11.992 26.944 12.232 27.64C12.48 28.336 12.812 28.924 13.228 29.404C13.652 29.876 14.144 30.236 14.704 30.484C15.264 30.732 15.864 30.856 16.504 30.856C16.872 30.856 17.208 30.84 17.512 30.808C17.816 30.768 18.1 30.708 18.364 30.628C18.628 30.54 18.876 30.428 19.108 30.292C19.34 30.148 19.576 29.968 19.816 29.752C19.912 29.672 20.016 29.608 20.128 29.56C20.24 29.504 20.356 29.476 20.476 29.476ZM39.6826 16.516L39.6826 34L37.5706 34C37.2586 34 36.9946 33.952 36.7786 33.856C36.5706 33.752 36.3626 33.576 36.1546 33.328L27.9106 22.9C27.9426 23.212 27.9626 23.516 27.9706 23.812C27.9866 24.1 27.9946 24.372 27.9946 24.628L27.9946 34L24.4186 34L24.4186 16.516L26.5546 16.516C26.7306 16.516 26.8786 16.524 26.9986 16.54C27.1186 16.556 27.2266 16.588 27.3226 16.636C27.4186 16.676 27.5106 16.736 27.5986 16.816C27.6866 16.896 27.7866 17.004 27.8986 17.14L36.2146 27.64C36.1746 27.304 36.1466 26.98 36.1306 26.668C36.1146 26.348 36.1066 26.048 36.1066 25.768L36.1066 16.516L39.6826 16.516Z" fill="white"/>
</svg>
